<svg width="48" height="48" viewBox="0 0 48 48" fill="none" xmlns="http://www.w3.org/2000/svg">
<path d="M21.1719 4.2C21.8799 3.49295 22.8272 3.07691 23.8268 3.03396C24.8265 2.99101 25.8059 3.32428 26.5719 3.968L26.8279 4.202L30.6279 8H35.9999C37.0087 8.00019 37.9802 8.38155 38.7198 9.06768C39.4593 9.75381 39.9123 10.694 39.9879 11.7L39.9999 12V17.372L43.7999 21.172C44.5075 21.8801 44.9239 22.8277 44.9669 23.8279C45.0098 24.828 44.6762 25.8079 44.0319 26.574L43.7979 26.828L39.9979 30.628V36C39.9983 37.0092 39.6171 37.9811 38.9309 38.7211C38.2448 39.4611 37.3042 39.9143 36.2979 39.99L35.9999 40H30.6299L26.8299 43.8C26.1219 44.5076 25.1742 44.924 24.1741 44.967C23.174 45.0099 22.1941 44.6763 21.4279 44.032L21.1739 43.8L17.3739 40H11.9999C10.9908 40.0003 10.0188 39.6192 9.27884 38.933C8.53888 38.2468 8.08563 37.3063 8.00994 36.3L7.99994 36V30.628L4.19994 26.828C3.49233 26.1199 3.07594 25.1723 3.03298 24.1721C2.99003 23.172 3.32364 22.1921 3.96794 21.426L4.19994 21.172L7.99994 17.372V12C8.00013 10.9912 8.38148 10.0197 9.06761 9.28017C9.75375 8.54064 10.694 8.08766 11.6999 8.012L11.9999 8H17.3719L21.1719 4.2ZM23.9999 7.032L20.1999 10.832C19.5356 11.4953 18.6591 11.9038 17.7239 11.986L17.3719 12H11.9999V17.372C12.0002 18.3118 11.6695 19.2217 11.0659 19.942L10.8279 20.202L7.02794 24.002L10.8279 27.8C11.492 28.464 11.9012 29.3406 11.9839 30.276L11.9999 30.628V36H17.3719C18.3117 35.9998 19.2216 36.3304 19.9419 36.934L20.2019 37.172L23.9999 40.972L27.7999 37.172C28.464 36.508 29.3405 36.0987 30.2759 36.016L30.6279 36H35.9999V30.628C35.9997 29.6882 36.3304 28.7784 36.9339 28.058L37.1719 27.798L40.9719 24L37.1719 20.2C36.5079 19.536 36.0987 18.6594 36.0159 17.724L35.9999 17.372V12H30.6279C29.6882 12.0002 28.7783 11.6696 28.0579 11.066L27.7979 10.828L23.9979 7.028L23.9999 7.032ZM30.1599 17.968C30.5199 17.6093 31.0028 17.4011 31.5107 17.3855C32.0186 17.37 32.5134 17.5484 32.8945 17.8845C33.2756 18.2206 33.5146 18.6891 33.5627 19.195C33.6109 19.7008 33.4648 20.206 33.1539 20.608L32.9859 20.796L23.2259 30.556C22.8449 30.9375 22.337 31.1659 21.7987 31.1976C21.2604 31.2293 20.7292 31.0622 20.3059 30.728L20.1139 30.558L15.3059 25.75C14.9434 25.3909 14.7319 24.9069 14.7146 24.3969C14.6973 23.887 14.8755 23.3897 15.2129 23.0068C15.5502 22.624 16.0211 22.3846 16.5292 22.3376C17.0373 22.2906 17.5441 22.4396 17.9459 22.754L18.1339 22.92L21.6699 26.456L30.1599 17.968Z" fill="#E2B268"/>
</svg>
