<svg width="48" height="48" viewBox="0 0 48 48" fill="none" xmlns="http://www.w3.org/2000/svg">
<path d="M42.898 4.798C43.0559 4.91589 43.189 5.06374 43.2897 5.2331C43.3905 5.40245 43.4569 5.59 43.4851 5.78502C43.5133 5.98003 43.5028 6.1787 43.4543 6.36967C43.4057 6.56064 43.32 6.74017 43.202 6.898L28.738 26.278C28.466 26.639 28.1178 26.9356 27.7181 27.1466C27.3185 27.3576 26.8772 27.4779 26.4257 27.4989C25.9742 27.5199 25.5237 27.4411 25.1061 27.2681C24.6886 27.0951 24.3143 26.8322 24.01 26.498L16.888 18.618C16.75 18.473 16.6425 18.3018 16.5717 18.1146C16.5009 17.9274 16.4683 17.7279 16.4758 17.5279C16.4833 17.3279 16.5307 17.1314 16.6153 16.95C16.6999 16.7686 16.82 16.606 16.9684 16.4717C17.1168 16.3374 17.2906 16.2342 17.4796 16.1681C17.6685 16.1021 17.8687 16.0745 18.0685 16.087C18.2683 16.0995 18.4635 16.1519 18.6427 16.241C18.8219 16.3301 18.9815 16.4542 19.112 16.606L26.236 24.486L26.25 24.494C26.258 24.498 26.2713 24.5 26.29 24.5L26.324 24.492L26.332 24.484L40.798 5.104C40.9157 4.94595 41.0635 4.81266 41.2328 4.71174C41.4021 4.61082 41.5896 4.54425 41.7846 4.51583C41.9796 4.48741 42.1783 4.4977 42.3694 4.54612C42.5604 4.59454 42.74 4.68013 42.898 4.798ZM24 7.5C20.7366 7.5 17.5465 8.46771 14.8331 10.2808C12.1197 12.0938 10.0048 14.6707 8.75599 17.6857C7.50714 20.7007 7.18039 24.0183 7.81704 27.219C8.4537 30.4197 10.0252 33.3597 12.3327 35.6673C14.6403 37.9748 17.5803 39.5463 20.781 40.183C23.9817 40.8196 27.2993 40.4929 30.3143 39.244C33.3293 37.9952 35.9062 35.8803 37.7192 33.1669C39.5323 30.4535 40.5 27.2634 40.5 24C40.5 23.6022 40.658 23.2206 40.9393 22.9393C41.2206 22.658 41.6022 22.5 42 22.5C42.3978 22.5 42.7794 22.658 43.0607 22.9393C43.342 23.2206 43.5 23.6022 43.5 24C43.5 34.77 34.77 43.5 24 43.5C13.23 43.5 4.5 34.77 4.5 24C4.5 13.23 13.23 4.5 24 4.5C24.3978 4.5 24.7794 4.65804 25.0607 4.93934C25.342 5.22064 25.5 5.60218 25.5 6C25.5 6.39782 25.342 6.77936 25.0607 7.06066C24.7794 7.34196 24.3978 7.5 24 7.5Z" fill="#E2B268"/>
</svg>
