<svg width="48" height="48" viewBox="0 0 48 48" fill="none" xmlns="http://www.w3.org/2000/svg">
<path d="M31.995 2.13562L23.8125 11.6016L29.7334 8.44631L30.1495 8.22365L30.5655 8.44912L32.2824 9.38081L31.9952 2.13562H31.995ZM12.1701 4.36528L14.4553 16.5909L22.7726 12.1582L12.1701 4.36528ZM30.1435 10.2159L7.81364 22.1161L18.0147 27.5156L40.2775 15.7266L30.1435 10.2159ZM34.1513 14.4052L36.5508 15.6268L18.0527 25.3712L11.7832 22.0254L14.1592 20.7685L18.0528 22.8488L34.1516 14.4053L34.1513 14.4052ZM42.7941 16.1134L43.6465 18.3662L46.1046 16.2422L42.794 16.1133L42.7941 16.1134ZM41.3145 17.1592L18.7004 29.1356L18.1583 36.9521L43.6641 23.376L41.3145 17.1592ZM9.94927 18.9933L1.55273 21.2606L5.00986 23.0947L5.58108 21.5685L5.69827 21.2578L5.99133 21.1026L9.94945 18.9932L9.94927 18.9933ZM6.7207 23.5225L4.01958 30.7413L16.38 37.3184L16.957 28.9395L6.72061 23.5226L6.7207 23.5225ZM38.1592 28.2921L21.8233 36.9874L26.9708 46.6849L30.5157 33.5712L43.8722 36.0673L38.1591 28.2917L38.1592 28.2921ZM9.96698 35.8918L8.14467 40.0929L13.5 37.7696L9.9668 35.8916L9.96698 35.8918Z" fill="#E2B268"/>
</svg>
