<svg width="13" height="13" viewBox="0 0 13 13" fill="none" xmlns="http://www.w3.org/2000/svg">
<path d="M6.48203 12.0655L0.707031 6.29111L6.48203 0.516113L11.844 0.929113L12.2564 6.29111L6.48203 12.0655Z" stroke="white"/>
<path d="M7.72 3.40301C7.82839 3.29469 7.95706 3.20878 8.09866 3.15019C8.24026 3.0916 8.39201 3.06147 8.54525 3.06152C8.69848 3.06158 8.85021 3.09181 8.99177 3.15051C9.13332 3.2092 9.26193 3.2952 9.37025 3.40359C9.47857 3.51199 9.56448 3.64066 9.62307 3.78225C9.68166 3.92385 9.71179 4.0756 9.71174 4.22884C9.71168 4.38208 9.68144 4.53381 9.62275 4.67536C9.56406 4.81692 9.47806 4.94552 9.36967 5.05384C9.15075 5.2726 8.8539 5.39544 8.54442 5.39533C8.23494 5.39522 7.93818 5.27217 7.71942 5.05326C7.50066 4.83435 7.37782 4.5375 7.37793 4.22801C7.37804 3.91853 7.50109 3.62177 7.72 3.40301Z" stroke="white"/>
</svg>
