<svg width="48" height="48" viewBox="0 0 48 48" fill="none" xmlns="http://www.w3.org/2000/svg">
<path d="M24 6.00005L24.59 4.62005C24.4035 4.54028 24.2028 4.49915 24 4.49915C23.7972 4.49915 23.5965 4.54028 23.41 4.62005L24 6.00005ZM24 42.0001L23.256 43.302C23.4826 43.4315 23.739 43.4996 24 43.4996C24.261 43.4996 24.5174 43.4315 24.744 43.302L24 42.0001ZM23.408 4.62205L10.624 10.1001L11.8 12.8601L24.588 7.38005L23.408 4.62205ZM8.5 13.3181V27.0381H11.5V13.3181H8.5ZM15.302 38.758L23.256 43.302L24.744 40.6981L16.79 36.1521L15.302 38.758ZM24.744 43.302L32.698 38.758L31.21 36.1521L23.256 40.6981L24.744 43.302ZM39.5 27.0361V13.3201H36.5V27.0401L39.5 27.0361ZM37.38 10.1021L24.59 4.62205L23.41 7.37805L36.198 12.8601L37.38 10.1021ZM39.5 13.3201C39.5 11.9201 38.666 10.6541 37.38 10.1021L36.198 12.8601C36.2878 12.8988 36.3643 12.963 36.418 13.0448C36.4717 13.1265 36.5002 13.2222 36.5 13.3201H39.5ZM32.698 38.758C34.7642 37.5774 36.4815 35.8715 37.676 33.8133C38.8705 31.7551 39.4998 29.4178 39.5 27.0381H36.5C36.4996 28.8886 36.0101 30.7062 35.0812 32.3067C34.1522 33.9073 32.8167 35.2338 31.21 36.1521L32.698 38.758ZM8.5 27.0381C8.50021 29.4178 9.12946 31.7551 10.324 33.8133C11.5185 35.8715 13.2358 37.5774 15.302 38.758L16.79 36.1521C15.183 35.2336 13.8473 33.9068 12.9183 32.3059C11.9894 30.705 11.5 28.887 11.5 27.0361L8.5 27.0381ZM10.62 10.1001C9.99081 10.37 9.45462 10.8186 9.0778 11.3902C8.70098 11.9618 8.50009 12.6334 8.5 13.3181H11.5C11.5 13.1181 11.62 12.9361 11.804 12.8561L10.62 10.1001Z" fill="#E2B268"/>
<path d="M30 20L22 28L18 24" stroke="#E2B268" stroke-width="2" stroke-linecap="round" stroke-linejoin="round"/>
</svg>
